HIERARCHY
ROOT reference
{
  OFFSET -65.3212 -1.93545 -120.338
  CHANNELS 6 Xposition Yposition Zposition Zrotation Xrotation Yrotation
  JOINT Hips
  {
    OFFSET 0 78.7191 0
    CHANNELS 6 Xposition Yposition Zposition Zrotation Xrotation Yrotation
    JOINT Chest
    {
      OFFSET 0 8.7983 -4.7612
      CHANNELS 6 Xposition Yposition Zposition Zrotation Xrotation Yrotation
      JOINT Chest2
      {
        OFFSET 0 8.0291 0.4195
        CHANNELS 6 Xposition Yposition Zposition Zrotation Xrotation Yrotation
        JOINT Chest3
        {
          OFFSET 0 9.9351 -2.2114
          CHANNELS 6 Xposition Yposition Zposition Zrotation Xrotation Yrotation
          JOINT Neck
          {
            OFFSET 0 22.3885 -0.4656
            CHANNELS 6 Xposition Yposition Zposition Zrotation Xrotation Yrotation
            JOINT Head
            {
              OFFSET -0.0001 12.643 3.4389
              CHANNELS 6 Xposition Yposition Zposition Zrotation Xrotation Yrotation
              End Site
              {
                OFFSET 0.0001 17.6655 0.5274
              }
            }
          }
          JOINT LeftCollar
          {
            OFFSET 2.2603 21.606 7.4023
            CHANNELS 6 Xposition Yposition Zposition Zrotation Xrotation Yrotation
            JOINT LeftShoulder
            {
              OFFSET 13.5163 -1.1332 -5.0146
              CHANNELS 6 Xposition Yposition Zposition Zrotation Xrotation Yrotation
              JOINT LeftElbow
              {
                OFFSET -0.0995 -28.05 -0.2431
                CHANNELS 6 Xposition Yposition Zposition Zrotation Xrotation Yrotation
                JOINT LeftWrist
                {
                  OFFSET 0.0679 -23.3996 -0.1402
                  CHANNELS 6 Xposition Yposition Zposition Zrotation Xrotation Yrotation
                  JOINT LeftFinger1
                  {
                    OFFSET 0.7932 -9.069 2.5189
                    CHANNELS 6 Xposition Yposition Zposition Zrotation Xrotation Yrotation
                    JOINT LeftFinger11
                    {
                      OFFSET -0.8272 -3.3923 0.5977
                      CHANNELS 6 Xposition Yposition Zposition Zrotation Xrotation Yrotation
                      JOINT LeftFinger12
                      {
                        OFFSET -0.5649 -2.3158 0.4082
                        CHANNELS 6 Xposition Yposition Zposition Zrotation Xrotation Yrotation
                        End Site
                        {
                          OFFSET -0.4919 -1.6479 0.2673
                        }
                      }
                    }
                  }
                  JOINT LeftFinger2
                  {
                    OFFSET 0.9159 -9.2044 0.2193
                    CHANNELS 6 Xposition Yposition Zposition Zrotation Xrotation Yrotation
                    JOINT LeftFinger21
                    {
                      OFFSET 0.0117 -4.1944 -0.0248
                      CHANNELS 6 Xposition Yposition Zposition Zrotation Xrotation Yrotation
                      JOINT LeftFinger22
                      {
                        OFFSET 0.0071 -2.3249 -0.0142
                        CHANNELS 6 Xposition Yposition Zposition Zrotation Xrotation Yrotation
                        End Site
                        {
                          OFFSET -0.1475 -2.0882 0.0028
                        }
                      }
                    }
                  }
                  JOINT LeftFinger3
                  {
                    OFFSET 0.6113 -8.7231 -2.0637
                    CHANNELS 6 Xposition Yposition Zposition Zrotation Xrotation Yrotation
                    JOINT LeftFinger31
                    {
                      OFFSET -0.1927 -3.8059 -0.2383
                      CHANNELS 6 Xposition Yposition Zposition Zrotation Xrotation Yrotation
                      JOINT LeftFinger32
                      {
                        OFFSET -0.1091 -2.1688 -0.1362
                        CHANNELS 6 Xposition Yposition Zposition Zrotation Xrotation Yrotation
                        End Site
                        {
                          OFFSET -0.2358 -1.9176 -0.0906
                        }
                      }
                    }
                  }
                  JOINT LeftFinger4
                  {
                    OFFSET -0.6151 -8.0947 -3.5641
                    CHANNELS 6 Xposition Yposition Zposition Zrotation Xrotation Yrotation
                    JOINT LeftFinger41
                    {
                      OFFSET -0.4882 -2.341 -0.6462
                      CHANNELS 6 Xposition Yposition Zposition Zrotation Xrotation Yrotation
                      JOINT LeftFinger42
                      {
                        OFFSET -0.3575 -1.7167 -0.4742
                        CHANNELS 6 Xposition Yposition Zposition Zrotation Xrotation Yrotation
                        End Site
                        {
                          OFFSET -0.4187 -1.5237 -0.3496
                        }
                      }
                    }
                  }
                  JOINT LeftFinger0
                  {
                    OFFSET -1.42 -1.8761 1.4223
                    CHANNELS 6 Xposition Yposition Zposition Zrotation Xrotation Yrotation
                    JOINT LeftFinger01
                    {
                      OFFSET -1.1471 -3.4929 2.6334
                      CHANNELS 6 Xposition Yposition Zposition Zrotation Xrotation Yrotation
                      JOINT LeftFinger02
                      {
                        OFFSET -0.823 -2.3 1.6571
                        CHANNELS 6 Xposition Yposition Zposition Zrotation Xrotation Yrotation
                        End Site
                        {
                          OFFSET -0.5822 -1.6914 1.1582
                        }
                      }
                    }
                  }
                }
              }
            }
          }
          JOINT RightCollar
          {
            OFFSET -2.2603 21.606 7.4023
            CHANNELS 6 Xposition Yposition Zposition Zrotation Xrotation Yrotation
            JOINT RightShoulder
            {
              OFFSET -13.5187 -1.1334 -5.0155
              CHANNELS 6 Xposition Yposition Zposition Zrotation Xrotation Yrotation
              JOINT RightElbow
              {
                OFFSET 0.0994 -28.0499 -0.2431
                CHANNELS 6 Xposition Yposition Zposition Zrotation Xrotation Yrotation
                JOINT RightWrist
                {
                  OFFSET -0.0679 -23.3996 -0.1402
                  CHANNELS 6 Xposition Yposition Zposition Zrotation Xrotation Yrotation
                  JOINT RightFinger1
                  {
                    OFFSET -0.7932 -9.0691 2.5189
                    CHANNELS 6 Xposition Yposition Zposition Zrotation Xrotation Yrotation
                    JOINT RightFinger11
                    {
                      OFFSET 0.8272 -3.3923 0.5977
                      CHANNELS 6 Xposition Yposition Zposition Zrotation Xrotation Yrotation
                      JOINT RightFinger12
                      {
                        OFFSET 0.565 -2.3158 0.4082
                        CHANNELS 6 Xposition Yposition Zposition Zrotation Xrotation Yrotation
                        End Site
                        {
                          OFFSET 0.4919 -1.6479 0.2673
                        }
                      }
                    }
                  }
                  JOINT RightFinger2
                  {
                    OFFSET -0.916 -9.2044 0.2193
                    CHANNELS 6 Xposition Yposition Zposition Zrotation Xrotation Yrotation
                    JOINT RightFinger21
                    {
                      OFFSET -0.0117 -4.1944 -0.0248
                      CHANNELS 6 Xposition Yposition Zposition Zrotation Xrotation Yrotation
                      JOINT RightFinger22
                      {
                        OFFSET -0.0071 -2.3249 -0.0142
                        CHANNELS 6 Xposition Yposition Zposition Zrotation Xrotation Yrotation
                        End Site
                        {
                          OFFSET 0.1475 -2.0882 0.0028
                        }
                      }
                    }
                  }
                  JOINT RightFinger3
                  {
                    OFFSET -0.6113 -8.7231 -2.0637
                    CHANNELS 6 Xposition Yposition Zposition Zrotation Xrotation Yrotation
                    JOINT RightFinger31
                    {
                      OFFSET 0.1927 -3.8059 -0.2383
                      CHANNELS 6 Xposition Yposition Zposition Zrotation Xrotation Yrotation
                      JOINT RightFinger32
                      {
                        OFFSET 0.1091 -2.1688 -0.1362
                        CHANNELS 6 Xposition Yposition Zposition Zrotation Xrotation Yrotation
                        End Site
                        {
                          OFFSET 0.2358 -1.9176 -0.0906
                        }
                      }
                    }
                  }
                  JOINT RightFinger4
                  {
                    OFFSET 0.6151 -8.0947 -3.564
                    CHANNELS 6 Xposition Yposition Zposition Zrotation Xrotation Yrotation
                    JOINT RightFinger41
                    {
                      OFFSET 0.4882 -2.341 -0.6462
                      CHANNELS 6 Xposition Yposition Zposition Zrotation Xrotation Yrotation
                      JOINT RightFinger42
                      {
                        OFFSET 0.3574 -1.7166 -0.4742
                        CHANNELS 6 Xposition Yposition Zposition Zrotation Xrotation Yrotation
                        End Site
                        {
                          OFFSET 0.4187 -1.5237 -0.3496
                        }
                      }
                    }
                  }
                  JOINT RightFinger0
                  {
                    OFFSET 1.4199 -1.8761 1.4221
                    CHANNELS 6 Xposition Yposition Zposition Zrotation Xrotation Yrotation
                    JOINT RightFinger01
                    {
                      OFFSET 1.1472 -3.4929 2.6336
                      CHANNELS 6 Xposition Yposition Zposition Zrotation Xrotation Yrotation
                      JOINT RightFinger02
                      {
                        OFFSET 0.8229 -2.3 1.6571
                        CHANNELS 6 Xposition Yposition Zposition Zrotation Xrotation Yrotation
                        End Site
                        {
                          OFFSET 0.5822 -1.6914 1.1582
                        }
                      }
                    }
                  }
                }
              }
            }
          }
        }
      }
    }
    JOINT RightHip
    {
      OFFSET -9.412 3.9771 -0.7758
      CHANNELS 6 Xposition Yposition Zposition Zrotation Xrotation Yrotation
      JOINT RightKnee
      {
        OFFSET -0.7531 -40.938 0
        CHANNELS 6 Xposition Yposition Zposition Zrotation Xrotation Yrotation
        JOINT RightAnkle
        {
          OFFSET 0 -40.1986 0
          CHANNELS 6 Xposition Yposition Zposition Zrotation Xrotation Yrotation
          JOINT RightToe
          {
            OFFSET 0 -4.4182 9.239
            CHANNELS 6 Xposition Yposition Zposition Zrotation Xrotation Yrotation
            End Site
            {
              OFFSET 0 0 6.1981
            }
          }
        }
      }
    }
    JOINT LeftHip
    {
      OFFSET 9.4119 3.9773 -0.7758
      CHANNELS 6 Xposition Yposition Zposition Zrotation Xrotation Yrotation
      JOINT LeftKnee
      {
        OFFSET 0.7532 -40.9383 0
        CHANNELS 6 Xposition Yposition Zposition Zrotation Xrotation Yrotation
        JOINT LeftAnkle
        {
          OFFSET 0 -40.1986 0
          CHANNELS 6 Xposition Yposition Zposition Zrotation Xrotation Yrotation
          JOINT LeftToe
          {
            OFFSET 0 -4.4182 9.239
            CHANNELS 6 Xposition Yposition Zposition Zrotation Xrotation Yrotation
            End Site
            {
              OFFSET 0 0 6.1981
            }
          }
        }
      }
    }
  }
}
MOTION
Frames:	4
Frame Time:	0.0333333
4.67632 -2.94804 15.8198 0 0 -0 4.44089e-015 78.7191 0 -3.15827e-005 22.9876 1.10658e-006 -8.88179e-016 8.7983 -4.7612 0.461343 -0.00366418 0.0887641 8.88179e-016 8.0291 0.4195 0.92268 -0.006605 0.177553 -8.88178e-016 9.9351 -2.2114 0.92269 -0.00661116 0.177555 1.77636e-015 22.3885 -0.4656 5.36204 -6.61096 1.10641 -0.0001 12.643 3.4389 5.35128 -6.66537 0.48258 2.2603 21.606 7.4023 2.74903 3.42237 -0.175868 13.5163 -1.1332 -5.0146 11.6515 16.6483 10.1283 -0.0995 -28.05 -0.2431 -72.2974 5.38281 -51.6399 0.0679 -23.3996 -0.1402 -2.72377 -9.54048 -22.9049 0.7932 -9.069 2.5189 -12.2213 16.3769 -2.83229 -0.8272 -3.3923 0.5977 -9.08006 5.65882 -0.0387746 -0.5649 -2.3158 0.4082 -11.2228 6.98221 0.0831183 0.9159 -9.2044 0.2193 -9.23503 7.40792 -3.35638 0.0117 -4.1944 -0.0248 -12.8858 8.1355 -0.355796 0.0071 -2.3249 -0.0142 -8.98225 5.6727 -0.442101 0.6113 -8.7231 -2.0637 -8.12181 5.10732 -0.194184 -0.1927 -3.8059 -0.2383 -12.2211 8.5252 -0.716692 -0.1091 -2.1688 -0.1362 -8.43176 5.87307 -0.689429 -0.6151 -8.0947 -3.5641 -9.10714 4.15689 0.119799 -0.4882 -2.341 -0.6462 -10.2366 7.06709 -1.07912 -0.3575 -1.7167 -0.4742 -8.63261 5.9481 -0.993273 -1.42 -1.8761 1.4223 4.37668 9.5433 -2.53566 -1.1471 -3.4929 2.6334 -1.00098 -0.669931 0.209667 -0.823 -2.3 1.6571 3.07527 4.00958 -0.947301 -2.2603 21.606 7.4023 -3.56498 2.82789 -5.22023 -13.5187 -1.1334 -5.0155 -17.8441 27.435 -16.9593 0.0994 -28.0499 -0.2431 72.6824 9.70004 56.4538 -0.0679 -23.3996 -0.1402 -14.915 -1.59371 40.0713 -0.7932 -9.0691 2.5189 4.70882 8.26435 4.61929 0.8272 -3.3923 0.5977 -0.0288284 -0.245961 0.281805 0.565 -2.3158 0.4082 1.12377 0.384254 -0.0218838 -0.916 -9.2044 0.2193 -5.19886 -1.67261 2.91522 -0.0117 -4.1944 -0.0248 0.0705981 -0.323928 -0.0574017 -0.0071 -2.3249 -0.0142 -6.44772 -2.17774 -0.276403 -0.6113 -8.7231 -2.0637 -11.1628 -4.38953 -1.65135 0.1927 -3.8059 -0.2383 0.200402 -1.23593 -0.619273 0.1091 -2.1688 -0.1362 -10.5525 -3.97209 -0.962284 0.6151 -8.0947 -3.564 -10.6145 -4.96595 -2.97519 0.4882 -2.341 -0.6462 -0.273963 -1.27521 -2.46717 0.3574 -1.7166 -0.4742 -10.3549 -3.74351 -1.21778 1.4199 -1.8761 1.4221 -9.46349 10.6392 2.32319 1.1472 -3.4929 2.6336 -0.28035 0.642913 0.203208 0.8229 -2.3 1.6571 -3.26433 7.09922 2.45125 -9.412 3.9771 -0.7758 -1.20843 -26.7856 31.2131 -0.7531 -40.938 -1.77636e-015 3.30582 23.0915 0.954153 0 -40.1986 1.77636e-015 -0.659429 -20.4347 4.06034 0 -4.4182 9.239 7.48117e-005 -7.93423e-006 -1.91648e-005 9.4119 3.9773 -0.7758 -6.82692 -30.3036 -26.8053 0.7532 -40.9383 3.55271e-015 -0.620091 27.4559 -1.65891 0 -40.1986 8.88179e-016 3.70544 -18.1071 -0.921622 -3.55271e-015 -4.4182 9.239 -7.84428e-005 -1.93255e-005 -3.02423e-006 
4.68241 -2.94779 15.8183 0 0 -0 4.44089e-015 78.7191 0 0.115576 23.0114 -0.126775 0 8.7983 -4.7612 0.500836 0.0527723 0.082246 0 8.0291 0.4195 1.00161 0.106278 0.164029 -8.88178e-016 9.9351 -2.2114 1.00159 0.106262 0.164027 0 22.3885 -0.4656 5.77463 -7.08603 0.71386 -0.0001 12.643 3.4389 5.73783 -7.10065 0.0846818 2.2603 21.606 7.4023 2.74855 3.4223 -0.175961 13.5163 -1.1332 -5.0146 11.441 16.5363 10.0888 -0.0995 -28.05 -0.2431 -72.0549 5.21381 -51.5371 0.0679 -23.3996 -0.1402 -2.98511 -9.8702 -23.1319 0.7932 -9.069 2.5189 -12.2213 16.3769 -2.83229 -0.8272 -3.3923 0.5977 -9.08005 5.65883 -0.0387283 -0.5649 -2.3158 0.4082 -11.2228 6.98225 0.0831754 0.9159 -9.2044 0.2193 -9.23502 7.40791 -3.35636 0.0117 -4.1944 -0.0248 -12.8859 8.13553 -0.355751 0.0071 -2.3249 -0.0142 -8.9822 5.67275 -0.44208 0.6113 -8.7231 -2.0637 -8.1218 5.10731 -0.194165 -0.1927 -3.8059 -0.2383 -12.2211 8.52527 -0.716629 -0.1091 -2.1688 -0.1362 -8.43177 5.87308 -0.689496 -0.6151 -8.0947 -3.5641 -9.10712 4.15688 0.11982 -0.4882 -2.341 -0.6462 -10.2366 7.06713 -1.07908 -0.3575 -1.7167 -0.4742 -8.63264 5.94809 -0.993306 -1.42 -1.8761 1.4223 4.37668 9.5433 -2.53564 -1.1471 -3.4929 2.6334 -1.00099 -0.669943 0.209673 -0.823 -2.3 1.6571 3.07527 4.00959 -0.947314 -2.2603 21.606 7.4023 -3.56543 2.82782 -5.2203 -13.5187 -1.1334 -5.0155 -17.854 27.2956 -16.9392 0.0994 -28.0499 -0.2431 72.5291 9.66927 56.0414 -0.0679 -23.3996 -0.1402 -15.0193 -1.68569 40.3393 -0.7932 -9.0691 2.5189 4.70884 8.26433 4.61932 0.8272 -3.3923 0.5977 -0.028796 -0.245947 0.281803 0.565 -2.3158 0.4082 1.12377 0.384239 -0.0218895 -0.916 -9.2044 0.2193 -5.19888 -1.67261 2.91522 -0.0117 -4.1944 -0.0248 0.0706127 -0.323973 -0.0574055 -0.0071 -2.3249 -0.0142 -6.44774 -2.17773 -0.27641 -0.6113 -8.7231 -2.0637 -11.1628 -4.38955 -1.65135 0.1927 -3.8059 -0.2383 0.200414 -1.23594 -0.619265 0.1091 -2.1688 -0.1362 -10.5525 -3.97207 -0.962297 0.6151 -8.0947 -3.564 -10.6145 -4.96597 -2.97515 0.4882 -2.341 -0.6462 -0.273907 -1.27523 -2.46719 0.3574 -1.7166 -0.4742 -10.3549 -3.74351 -1.21778 1.4199 -1.8761 1.4221 -9.4635 10.6392 2.32315 1.1472 -3.4929 2.6336 -0.280342 0.642891 0.203254 0.8229 -2.3 1.6571 -3.26434 7.09922 2.45126 -9.412 3.9771 -0.7758 -1.28205 -26.8861 31.2045 -0.7531 -40.938 0 3.3419 23.1885 0.998606 3.55271e-015 -40.1986 8.88179e-016 -0.671731 -20.4662 4.10659 1.77636e-015 -4.4182 9.239 8.74962e-005 -1.57932e-005 -5.49583e-006 9.4119 3.9773 -0.7758 -6.90012 -30.2746 -26.8241 0.7532 -40.9383 3.55271e-015 -0.603282 27.3781 -1.60076 0 -40.1986 1.77636e-015 3.68948 -18.0794 -0.87865 0 -4.4182 9.239 -1.89076e-005 -1.8727e-005 2.90276e-005 
4.6869 -2.94756 15.8174 0 0 -0 4.44089e-015 78.7191 0 0.235643 23.0252 -0.398226 0 8.7983 -4.7612 0.560315 0.127662 0.0523889 8.88179e-016 8.0291 0.4195 1.12053 0.255841 0.103528 0 9.9351 -2.2114 1.12053 0.255824 0.103528 0 22.3885 -0.4656 6.32911 -7.63294 -0.568435 -0.0001 12.643 3.4389 6.21921 -7.54479 -1.2222 2.2603 21.606 7.4023 2.74872 3.42227 -0.175913 13.5163 -1.1332 -5.0146 11.0398 16.3837 10.0091 -0.0995 -28.05 -0.2431 -71.6678 4.93938 -51.3693 0.0679 -23.3996 -0.1402 -3.19993 -10.4369 -23.3233 0.7932 -9.069 2.5189 -12.2213 16.3769 -2.83228 -0.8272 -3.3923 0.5977 -9.08005 5.65883 -0.0387147 -0.5649 -2.3158 0.4082 -11.2228 6.98224 0.0831751 0.9159 -9.2044 0.2193 -9.235 7.40791 -3.35637 0.0117 -4.1944 -0.0248 -12.8858 8.13555 -0.35572 0.0071 -2.3249 -0.0142 -8.9822 5.67276 -0.442124 0.6113 -8.7231 -2.0637 -8.1218 5.10732 -0.194164 -0.1927 -3.8059 -0.2383 -12.2211 8.52528 -0.716619 -0.1091 -2.1688 -0.1362 -8.43177 5.87304 -0.689509 -0.6151 -8.0947 -3.5641 -9.10711 4.15689 0.119813 -0.4882 -2.341 -0.6462 -10.2366 7.06716 -1.07906 -0.3575 -1.7167 -0.4742 -8.63265 5.94807 -0.993337 -1.42 -1.8761 1.4223 4.37666 9.54331 -2.53563 -1.1471 -3.4929 2.6334 -1.00095 -0.669833 0.209662 -0.823 -2.3 1.6571 3.07525 4.00957 -0.947306 -2.2603 21.606 7.4023 -3.56526 2.82779 -5.22025 -13.5187 -1.1334 -5.0155 -18.0427 27.1077 -16.8956 0.0994 -28.0499 -0.2431 72.4431 9.53843 55.9837 -0.0679 -23.3996 -0.1402 -15.0481 -1.66654 40.7808 -0.7932 -9.0691 2.5189 4.70883 8.26434 4.61932 0.8272 -3.3923 0.5977 -0.0288693 -0.245966 0.281803 0.565 -2.3158 0.4082 1.12378 0.38425 -0.0219002 -0.916 -9.2044 0.2193 -5.19888 -1.67262 2.91526 -0.0117 -4.1944 -0.0248 0.0706179 -0.32394 -0.057412 -0.0071 -2.3249 -0.0142 -6.44774 -2.17775 -0.276401 -0.6113 -8.7231 -2.0637 -11.1628 -4.38956 -1.65131 0.1927 -3.8059 -0.2383 0.200433 -1.23593 -0.619268 0.1091 -2.1688 -0.1362 -10.5525 -3.97208 -0.962297 0.6151 -8.0947 -3.564 -10.6145 -4.96597 -2.97514 0.4882 -2.341 -0.6462 -0.273907 -1.27522 -2.46719 0.3574 -1.7166 -0.4742 -10.3549 -3.74354 -1.21775 1.4199 -1.8761 1.4221 -9.4635 10.6392 2.32313 1.1472 -3.4929 2.6336 -0.280327 0.642894 0.203235 0.8229 -2.3 1.6571 -3.26434 7.09922 2.45125 -9.412 3.9771 -0.7758 -1.33614 -26.9762 31.1993 -0.7531 -40.938 0 3.38571 23.2251 1.12748 -3.55271e-015 -40.1986 8.88178e-016 -0.69222 -20.4556 4.20833 -1.77636e-015 -4.4182 9.239 6.63717e-005 -6.00909e-006 -1.64334e-005 9.4119 3.9773 -0.7758 -6.94675 -30.2353 -26.8354 0.7532 -40.9383 0 -0.565365 27.3419 -1.46666 0 -40.1986 -1.77636e-015 3.65709 -18.0875 -0.776894 -3.55271e-015 -4.4182 9.239 3.09412e-005 -4.68742e-006 2.90276e-005 
4.69013 -2.94745 15.8169 0 0 -0 4.44089e-015 78.7191 0 0.359233 23.0316 -0.786366 0 8.7983 -4.7612 0.635241 0.214891 0.00332101 -8.88179e-016 8.0291 0.4195 1.27048 0.429808 0.00426002 -8.88179e-016 9.9351 -2.2114 1.27049 0.429799 0.00425987 0 22.3885 -0.4656 6.98452 -8.24367 -2.54535 -0.0001 12.643 3.4389 6.76242 -8.01596 -3.24476 2.2603 21.606 7.4023 2.74863 3.42219 -0.175901 13.5163 -1.1332 -5.0146 10.4911 16.1996 9.89669 -0.0995 -28.05 -0.2431 -71.1726 4.58718 -51.1489 0.0679 -23.3996 -0.1402 -3.37184 -11.1892 -23.4735 0.7932 -9.069 2.5189 -12.2213 16.3769 -2.8323 -0.8272 -3.3923 0.5977 -9.08005 5.65883 -0.0387139 -0.5649 -2.3158 0.4082 -11.2228 6.98225 0.0832536 0.9159 -9.2044 0.2193 -9.23504 7.4079 -3.35637 0.0117 -4.1944 -0.0248 -12.8858 8.13554 -0.355699 0.0071 -2.3249 -0.0142 -8.98217 5.6728 -0.442081 0.6113 -8.7231 -2.0637 -8.12182 5.10729 -0.19418 -0.1927 -3.8059 -0.2383 -12.2211 8.52528 -0.716594 -0.1091 -2.1688 -0.1362 -8.43175 5.8731 -0.689496 -0.6151 -8.0947 -3.5641 -9.10713 4.15688 0.119813 -0.4882 -2.341 -0.6462 -10.2366 7.06715 -1.07904 -0.3575 -1.7167 -0.4742 -8.63262 5.94813 -0.993304 -1.42 -1.8761 1.4223 4.37666 9.5433 -2.53562 -1.1471 -3.4929 2.6334 -1.00099 -0.669956 0.209661 -0.823 -2.3 1.6571 3.07526 4.00959 -0.94728 -2.2603 21.606 7.4023 -3.56536 2.8277 -5.22023 -13.5187 -1.1334 -5.0155 -18.3798 26.8844 -16.8342 0.0994 -28.0499 -0.2431 72.4187 9.41272 55.935 -0.0679 -23.3996 -0.1402 -15.018 -1.55141 41.3717 -0.7932 -9.0691 2.5189 4.70884 8.26434 4.61935 0.827201 -3.3923 0.5977 -0.0287747 -0.245972 0.281832 0.565 -2.3158 0.4082 1.12377 0.384251 -0.0218866 -0.916001 -9.2044 0.2193 -5.19886 -1.67263 2.9153 -0.0117 -4.1944 -0.0248 0.0705783 -0.323957 -0.0573972 -0.0071 -2.3249 -0.0142 -6.44773 -2.17772 -0.276394 -0.6113 -8.7231 -2.0637 -11.1628 -4.38955 -1.65132 0.1927 -3.8059 -0.2383 0.20042 -1.23593 -0.619264 0.1091 -2.1688 -0.1362 -10.5525 -3.9721 -0.962289 0.6151 -8.0947 -3.564 -10.6145 -4.96597 -2.97513 0.4882 -2.341 -0.6462 -0.273905 -1.27524 -2.46719 0.3574 -1.7166 -0.4742 -10.3549 -3.74352 -1.21776 1.4199 -1.8761 1.4221 -9.46347 10.6392 2.32307 1.1472 -3.4929 2.6336 -0.280353 0.642898 0.203257 0.8229 -2.3 1.6571 -3.26435 7.09921 2.45125 -9.412 3.9771 -0.7758 -1.37224 -27.0894 31.1982 -0.7531 -40.938 -1.77636e-015 3.45111 23.2393 1.32241 0 -40.1986 3.55271e-015 -0.719192 -20.4104 4.35476 -3.55271e-015 -4.4182 9.239 9.55514e-005 -2.11685e-005 -2.77205e-006 9.4119 3.9773 -0.7758 -6.97214 -30.1915 -26.8408 0.7532 -40.9383 0 -0.511547 27.3422 -1.27107 0 -40.1986 1.77636e-015 3.61137 -18.1249 -0.627715 3.55271e-015 -4.4182 9.239 2.39924e-005 -8.15794e-006 2.75155e-005 
